<?xml version="1.0" encoding="UTF-8"?>
<svg xmlns="http://www.w3.org/2000/svg" viewBox="0 0 64 64" width="512" height="512"><g id="Outline"><path d="M45.418,21.586a1,1,0,1,0-1.579,1.227A14.848,14.848,0,0,1,47,32,15,15,0,1,1,32,17a14.848,14.848,0,0,1,9.187,3.161,1,1,0,0,0,1.227-1.579A16.833,16.833,0,0,0,32,15,17,17,0,1,0,49,32,16.833,16.833,0,0,0,45.418,21.586Z"/><path d="M32,37a2,2,0,0,1-2-2,1,1,0,0,0-2,0,4,4,0,0,0,3,3.858V40a1,1,0,0,0,2,0V38.858A3.992,3.992,0,0,0,32,31a2,2,0,1,1,2-2,1,1,0,0,0,2,0,4,4,0,0,0-3-3.858V24a1,1,0,0,0-2,0v1.142A3.992,3.992,0,0,0,32,33a2,2,0,0,1,0,4Z"/><path d="M24.24,41.194a1,1,0,0,0,.235,1.394,13.026,13.026,0,1,0-3.063-3.063,1,1,0,1,0,1.629-1.16,11.026,11.026,0,1,1,2.594,2.594A1,1,0,0,0,24.24,41.194Z"/><path d="M23,52H16V41a1,1,0,0,0-1-1H8V35a1,1,0,0,0-2,0v1H3a1,1,0,0,0-1,1V61a1,1,0,0,0,2,0V54H14v6H12V57a1,1,0,0,0-1-1H7a1,1,0,0,0-1,1v4a1,1,0,0,0,1,1H23a1,1,0,0,0,1-1V53A1,1,0,0,0,23,52ZM4,38H6v2H4ZM4,50h7a1,1,0,0,0,0-2H4V42H14v2H7a1,1,0,0,0,0,2h7v6H4Zm4,8h2v2H8Zm8,2V54h6v2H20a1,1,0,0,0,0,2h2v2Z"/><path d="M53,20A8.99,8.99,0,0,0,60.748,6.434a1,1,0,0,0-1.723,1.017,6.946,6.946,0,0,1-.393,7.688,5.012,5.012,0,0,0-2.522-2.655A3.961,3.961,0,0,0,57,10a4,4,0,0,0-8,0,3.961,3.961,0,0,0,.89,2.484,5.012,5.012,0,0,0-2.522,2.655A6.988,6.988,0,0,1,56.549,4.975a1,1,0,1,0,1.017-1.723A9,9,0,1,0,53,20ZM53,8a2,2,0,1,1-2,2A2,2,0,0,1,53,8Zm-1,6h2a2.994,2.994,0,0,1,2.975,2.755,6.968,6.968,0,0,1-7.95,0A2.994,2.994,0,0,1,52,14Z"/><path d="M5.254,12.925l1.365,4.094a2.9,2.9,0,1,0,5.5-1.833l-.447-1.341,7.044,2.113A1,1,0,0,0,20,15V12a1,1,0,0,0-2,0v1.656l-8-2.4V6.744l8-2.4V8a1,1,0,0,0,2,0V3a1,1,0,0,0-1.287-.958L8.853,5H6a4,4,0,0,0-.746,7.925Zm4.965,2.894a.889.889,0,0,1-.123.808.931.931,0,0,1-1.58-.241L7.388,13H8.853l.473.142ZM6,7H8v4H6A2,2,0,0,1,6,7Z"/><path d="M61,46H47a1,1,0,0,0-1,1V61a1,1,0,0,0,1,1H61a1,1,0,0,0,1-1V54a1,1,0,0,0-2,0v6H48V48h3v3a1,1,0,0,0,1,1h4a1,1,0,0,0,1-1V48h3v2a1,1,0,0,0,2,0V47A1,1,0,0,0,61,46Zm-6,4H53V48h2Z"/><path d="M56.249,43.913a1,1,0,0,0,1.321-.5A27.988,27.988,0,0,0,58.1,21.875a1,1,0,0,0-1.864.724,25.99,25.99,0,0,1-.5,19.993A1,1,0,0,0,56.249,43.913Z"/><path d="M42.592,55.744a25.853,25.853,0,0,1-15.408,1.8,1,1,0,0,0-.368,1.966A28.226,28.226,0,0,0,32,60a27.8,27.8,0,0,0,11.408-2.43,1,1,0,0,0-.816-1.826Z"/><path d="M6.184,21.143A27.833,27.833,0,0,0,4,32a1,1,0,0,0,2,0A25.844,25.844,0,0,1,8.027,21.919a1,1,0,1,0-1.843-.776Z"/><path d="M23.333,7.485A26.122,26.122,0,0,1,41.4,7.76,1,1,0,0,0,42.125,5.9a28.125,28.125,0,0,0-19.458-.3,1,1,0,1,0,.666,1.885Z"/></g></svg>
